#!OML:ASF F:\VICON\USERDATA\INSTALL\rory3\rory3.ASF
:FULLY-SPECIFIED
:DEGREES
19
root 0.8463983209532353 17.913098120183992 -4.4010109267884925 -4.044089997249186 -1.0021740842841003 2.3573192000098953
lfemur 0.11127560160140959 -4.089152935823826 -28.40148761916369
ltibia 25.658903321889227
lfoot -17.17998761327571 1.2625045846696077
ltoes 6.189166747311175
rfemur -30.56248762740602 -1.720793302200137 19.07720982771423
rtibia 56.2653907639026
rfoot -10.7770975394865 -9.778443491041122
rtoes -2.3390621649557826
lowerback 11.680485627034026 -0.26079502600388754 -2.241361644886779
upperback 0.545259274620042 -0.597691535183233 0.7494558920769818
thorax -5.953631505418078 -0.22203808735669872 2.1521832881531218
lowerneck -16.137002271674252 -2.751196285078121 -1.509556920721485
upperneck 22.34738792823677 -3.2158094668765704 -0.9678538262856211
head 9.759249739827716 -1.735014829725969 -0.5050681063954411
lclavicle -4.533851499001848e-16 -7.764982017229942e-16
lhumerus -26.301807227461747 0.30617344334105656 81.0390928484179
lradius 26.75899579888305
lwrist 5.63477892746222
lhand -28.14730092774284 16.84630716352252
lfingers 7.12502
lthumb -1.5281309188310903 46.8206069198239
rclavicle -4.533851499001848e-16 -7.764982017229942e-16
rhumerus -30.7354960243083 -23.162293290639198 -77.13480321962425
rradius 24.423504648601945
rwrist 5.42080709630476
rhand -17.70510144704442 24.621290645444187
rfingers 7.12502
rthumb 8.554898534443188 -5.18538948581962
20
root 0.7923675799701786 17.92259743744692 -3.696630600821715 -3.416144067408406 -0.492401785085852 2.7854981293614482
lfemur 3.997251184461147 -3.3273351703560348 -28.620987068471763
ltibia 21.374806168274052
lfoot -17.550987701547925 -0.13040761553764213
ltoes 2.4839722006419875
rfemur -31.21258729300748 -0.5718360480955771 18.460610441635854
rtibia 44.20809692606627
rfoot -8.286160029530228 -10.984991457493614
rtoes -5.40910743056839
lowerback 11.26958914545841 -0.5300272171290894 -3.0926397053280263
upperback 0.5493901712211158 -1.0473826842282472 0.8836971700674892
thorax -5.677745515037932 -0.4234642364766087 2.8401704438569793
lowerneck -16.998687037194852 -2.692578066175283 -1.7603530622154213
upperneck 22.402087290876835 -3.141610780535122 -0.5864645567261155
head 9.952333080018489 -1.6755975392412936 -0.33511802426365755
lclavicle -4.533851309123039e-16 -7.764981973281276e-16
lhumerus -24.08721032453516 -0.531999324310811 80.85319372555888
lradius 28.693091945727634
lwrist 7.747152889899955
lhand -21.590230406679805 46.071850160181725
lfingers 7.12502
lthumb 4.804479488245107 75.99735149480829
rclavicle -4.533851309123039e-16 -7.764981973281276e-16
rhumerus -31.68489451182756 -23.10029319481722 -76.5942044258484
rradius 24.566404276525702
rwrist 5.088287826844767
rhand -17.4904030585007 24.1430924615471
rfingers 7.12502
rthumb 8.762096918555866 -5.6549975984206995
21
root 0.7237804524920901 17.895390595990797 -3.272677638131521 -2.48488366139088 -0.1704065559821708 3.145947153710014
lfemur 7.781056961592002 -2.342933934251771 -28.801861861479814
ltibia 16.745124570497552
lfoot -17.5498629547957 -0.5684843662227652
ltoes 1.6358680528903835
rfemur -29.455518769535903 2.1910821398042106 17.093341423245803
rtibia 30.243180707041432
rfoot -7.549394841854672 -12.718147117766115
rtoes -2.0275774728306706
lowerback 10.288999529322526 -0.7065281378191786 -3.9655163876904584
upperback 0.3574982221377338 -1.2656903104869968 0.7859970648707294
thorax -5.484792038405333 -0.5186332755643392 2.9718319973165146
lowerneck -16.61672633422189 -2.681880533504097 -1.6938824422924617
upperneck 22.210612368355747 -3.2590993544383564 -0.7963705699140173
head 9.763191957467793 -1.7275522807630028 -0.37795608837788525
lclavicle -4.554188310719345e-16 -7.780707630616628e-16
lhumerus -22.88572132454867 -2.188531057491656 80.87125081781228
lradius 29.51172552786726
lwrist 8.877497662562455
lhand -28.386838247400796 23.873841254517124
lfingers 7.12502
lthumb -1.6681771237362624 54.5385908191899
rclavicle -4.455470271476199e-16 -7.687993554282135e-16
rhumerus -32.73394078538348 -23.623067955654406 -75.83964914112657
rradius 24.30412505301471
rwrist 5.110754359152741
rhand -17.463223429983028 23.165465042394754
rfingers 7.12502
rthumb 8.64514441822184 -6.654917276069284
22
root 0.6416112393115572 17.86343585652644 -3.0095310653856853 -2.1354283836939048 0.8270967683751831 3.4759129259787223
lfemur 11.748666954133997 -2.0113797744486877 -28.736368330911546
ltibia 12.770261296075567
lfoot -17.59992707321282 -1.61349149044816
ltoes -1.497647210094514
rfemur -27.43174610378113 6.442364029332532 14.183829072387917
rtibia 17.592384841570553
rfoot -9.845321298095861 -16.184378672843884
rtoes -3.05979843268127
lowerback 9.712171760687392 -1.0545437196618523 -4.770330906712229
upperback 0.22525280845643542 -1.812737380464884 0.7470700768494689
thorax -5.339290053223863 -0.7983374055139371 3.266708229355106
lowerneck -16.514152920416038 -2.7088247079229992 -1.748269440057728
upperneck 22.12073439614825 -3.268607568296361 -0.7563596403377526
head 9.681764993102847 -1.7399314689261418 -0.32613158273568704
lclavicle -4.540495097364207e-16 -7.770129226802029e-16
lhumerus -22.046843742894243 -2.921770032018223 80.70320067297973
lradius 30.3031710260888
lwrist 9.08219332588764
lhand -27.799276605858964 25.17776254316557
lfingers 7.12502
lthumb -1.3274831225752735 54.83209778850268
rclavicle -4.451873626302697e-16 -7.684580714012718e-16
rhumerus -33.85260413352235 -24.897639706468684 -74.75160460014443
rradius 23.696340148010854
rwrist 6.474593148678723
rhand -17.286073813935307 23.487035546027244
rfingers 7.12502
rthumb 8.854216690968729 -6.123356125295693
23
root 0.5548305586247739 17.799820519587083 -2.3753130511491864 -2.04657116550844 1.6160534813630139 3.399340670406831
lfemur 14.508510221522604 -2.4988196187100713 -28.17614547516616
ltibia 11.577875930694038
lfoot -17.09212656778744 -2.8477301157944477
ltoes -1.6505064549593012
rfemur -25.89021134029329 9.659247525604401 12.522182747557544
rtibia 11.849924766459832
rfoot -13.182633046746357 -16.565914456009878
rtoes -7.361585888772602
lowerback 9.535311867928094 -1.2860383127020187 -4.964140062280629
upperback 0.1931323725063471 -2.1669219185561888 0.8187196789348199
thorax -5.13517336663702 -0.9587021068957736 3.399347708506001
lowerneck -16.568371773604856 -2.809651511822491 -1.8437325195913004
upperneck 22.03717505046326 -3.4374358547813393 -0.5046060626421045
head 9.66892785919763 -1.783741040007356 -0.2804937914268902
lclavicle -4.547376813321839e-16 -7.775450838785801e-16
lhumerus -21.218037224435633 -3.189785683574277 80.6588688257881
lradius 30.726603142373232
lwrist 9.44026667775789
lhand -28.743413488529825 23.155613682777467
lfingers 7.12502
lthumb -2.0059016530676175 53.34050419648868
rclavicle -4.489462060390676e-16 -7.712377346679004e-16
rhumerus -35.00726401706474 -26.23341874588734 -73.65094840897663
rradius 23.086703651339256
rwrist 6.805301478309352
rhand -17.69394294731068 23.38693086084524
rfingers 7.12502
rthumb 8.488672890142329 -6.443586896042034
